<svg width="6" height="6" viewBox="0 0 6 6" fill="none" xmlns="http://www.w3.org/2000/svg">
<path d="M3 5.5C2.65833 5.5 2.33542 5.43437 2.03125 5.30312C1.72708 5.17188 1.46146 4.99271 1.23438 4.76562C1.00729 4.53854 0.828125 4.27292 0.696875 3.96875C0.565625 3.66458 0.5 3.34167 0.5 3C0.5 2.65417 0.565625 2.32917 0.696875 2.025C0.828125 1.72083 1.00729 1.45625 1.23438 1.23125C1.46146 1.00625 1.72708 0.828125 2.03125 0.696875C2.33542 0.565625 2.65833 0.5 3 0.5C3.34583 0.5 3.67083 0.565625 3.975 0.696875C4.27917 0.828125 4.54375 1.00625 4.76875 1.23125C4.99375 1.45625 5.17188 1.72083 5.30312 2.025C5.43437 2.32917 5.5 2.65417 5.5 3C5.5 3.34167 5.43437 3.66458 5.30312 3.96875C5.17188 4.27292 4.99375 4.53854 4.76875 4.76562C4.54375 4.99271 4.27917 5.17188 3.975 5.30312C3.67083 5.43437 3.34583 5.5 3 5.5ZM3 5.125C3.59167 5.125 4.09375 4.91771 4.50625 4.50313C4.91875 4.08854 5.125 3.5875 5.125 3C5.125 2.40833 4.91875 1.90625 4.50625 1.49375C4.09375 1.08125 3.59167 0.875 3 0.875C2.4125 0.875 1.91146 1.08125 1.49688 1.49375C1.08229 1.90625 0.875 2.40833 0.875 3C0.875 3.5875 1.08229 4.08854 1.49688 4.50313C1.91146 4.91771 2.4125 5.125 3 5.125ZM3 5.125C2.4125 5.125 1.91146 4.91771 1.49688 4.50313C1.08229 4.08854 0.875 3.5875 0.875 3C0.875 2.40833 1.08229 1.90625 1.49688 1.49375C1.91146 1.08125 2.4125 0.875 3 0.875C3.59167 0.875 4.09375 1.08125 4.50625 1.49375C4.91875 1.90625 5.125 2.40833 5.125 3C5.125 3.5875 4.91875 4.08854 4.50625 4.50313C4.09375 4.91771 3.59167 5.125 3 5.125Z" fill="#FF9801"/>
</svg>
