<svg width="52" height="52" viewBox="0 0 52 52" fill="none" xmlns="http://www.w3.org/2000/svg">
<path fill-rule="evenodd" clip-rule="evenodd" d="M21 15.5C21 14.6716 21.6716 14 22.5 14H30.5C31.3284 14 32 14.6716 32 15.5V23.5C32 23.6169 31.9866 23.7307 31.9613 23.84L35.16 27.0387C35.2693 27.0134 35.3831 27 35.5 27H43.5C44.3284 27 45 27.6716 45 28.5V36.5C45 37.3284 44.3284 38 43.5 38H35.5C35.3485 38 35.2022 37.9775 35.0643 37.9357L31.9357 41.0643C31.9775 41.2022 32 41.3485 32 41.5V49.5C32 50.3284 31.3284 51 30.5 51H22.5C21.6716 51 21 50.3284 21 49.5V41.5C21 40.6716 21.6716 40 22.5 40H30.5C30.6169 40 30.7307 40.0134 30.84 40.0387L34.0387 36.84C34.0134 36.7307 34 36.6169 34 36.5V28.5C34 28.3485 34.0225 28.2022 34.0643 28.0643L30.9357 24.9357C30.7978 24.9775 30.6515 25 30.5 25H22.5C21.6716 25 21 24.3284 21 23.5V15.5Z" fill="#00A3FF"/>
<path fill-rule="evenodd" clip-rule="evenodd" d="M21 2.5C21 1.67157 21.6716 1 22.5 1H30.5C31.3284 1 32 1.67157 32 2.5V10.5C32 11.3284 31.3284 12 30.5 12H22.5C22.3485 12 22.2022 11.9775 22.0643 11.9357L18.9357 15.0643C18.9775 15.2022 19 15.3485 19 15.5V23.5C19 23.6169 18.9866 23.7307 18.9613 23.84L22.16 27.0387C22.2693 27.0134 22.3831 27 22.5 27H30.5C31.3284 27 32 27.6716 32 28.5V36.5C32 37.3284 31.3284 38 30.5 38H22.5C21.6716 38 21 37.3284 21 36.5V28.5C21 28.3485 21.0225 28.2022 21.0643 28.0643L17.9357 24.9357C17.7978 24.9775 17.6515 25 17.5 25H9.5C8.67157 25 8 24.3284 8 23.5V15.5C8 14.6716 8.67157 14 9.5 14H17.5C17.6169 14 17.7307 14.0134 17.84 14.0387L21.0387 10.84C21.0134 10.7307 21 10.6169 21 10.5V2.5Z" fill="black"/>
</svg>
