<svg width="40" height="40" viewBox="0 0 40 40" fill="none" xmlns="http://www.w3.org/2000/svg">
<path d="M30.2917 36.6667C28.9861 36.6667 27.8681 36.2014 26.9375 35.2709C26.0069 34.3403 25.5417 33.2223 25.5417 31.9167C25.5417 31.7223 25.5625 31.4931 25.6042 31.2292C25.6458 30.9653 25.7083 30.7223 25.7917 30.5L13.1667 23.1667C12.75 23.6389 12.2361 24.0209 11.625 24.3125C11.0139 24.6042 10.3889 24.75 9.75 24.75C8.44444 24.75 7.32639 24.2848 6.39583 23.3542C5.46528 22.4237 5 21.3056 5 20C5 18.6667 5.46528 17.5417 6.39583 16.625C7.32639 15.7084 8.44444 15.25 9.75 15.25C10.3889 15.25 11 15.375 11.5833 15.625C12.1667 15.875 12.6944 16.2362 13.1667 16.7084L25.7917 9.45837C25.7083 9.26393 25.6458 9.04171 25.6042 8.79171C25.5625 8.54171 25.5417 8.3056 25.5417 8.08337C25.5417 6.75004 26.0069 5.62504 26.9375 4.70837C27.8681 3.79171 28.9861 3.33337 30.2917 3.33337C31.625 3.33337 32.75 3.79171 33.6667 4.70837C34.5833 5.62504 35.0417 6.75004 35.0417 8.08337C35.0417 9.38893 34.5833 10.507 33.6667 11.4375C32.75 12.3681 31.625 12.8334 30.2917 12.8334C29.6528 12.8334 29.0347 12.7292 28.4375 12.5209C27.8403 12.3125 27.3333 11.9723 26.9167 11.5L14.2917 18.5C14.3472 18.7223 14.3958 18.9792 14.4375 19.2709C14.4792 19.5625 14.5 19.8056 14.5 20C14.5 20.1945 14.4792 20.4028 14.4375 20.625C14.3958 20.8473 14.3472 21.0695 14.2917 21.2917L26.9167 28.4584C27.3333 28.0695 27.8194 27.757 28.375 27.5209C28.9306 27.2848 29.5694 27.1667 30.2917 27.1667C31.625 27.1667 32.75 27.625 33.6667 28.5417C34.5833 29.4584 35.0417 30.5834 35.0417 31.9167C35.0417 33.2223 34.5833 34.3403 33.6667 35.2709C32.75 36.2014 31.625 36.6667 30.2917 36.6667ZM30.2917 10.3334C30.9306 10.3334 31.4653 10.1181 31.8958 9.68754C32.3264 9.25699 32.5417 8.72226 32.5417 8.08337C32.5417 7.44448 32.3264 6.90976 31.8958 6.47921C31.4653 6.04865 30.9306 5.83337 30.2917 5.83337C29.6528 5.83337 29.1181 6.04865 28.6875 6.47921C28.2569 6.90976 28.0417 7.44448 28.0417 8.08337C28.0417 8.72226 28.2569 9.25699 28.6875 9.68754C29.1181 10.1181 29.6528 10.3334 30.2917 10.3334ZM9.75 22.25C10.3889 22.25 10.9236 22.0348 11.3542 21.6042C11.7847 21.1737 12 20.6389 12 20C12 19.3612 11.7847 18.8264 11.3542 18.3959C10.9236 17.9653 10.3889 17.75 9.75 17.75C9.11111 17.75 8.57639 17.9653 8.14583 18.3959C7.71528 18.8264 7.5 19.3612 7.5 20C7.5 20.6389 7.71528 21.1737 8.14583 21.6042C8.57639 22.0348 9.11111 22.25 9.75 22.25ZM30.2917 34.1667C30.9306 34.1667 31.4653 33.9514 31.8958 33.5209C32.3264 33.0903 32.5417 32.5556 32.5417 31.9167C32.5417 31.2778 32.3264 30.7431 31.8958 30.3125C31.4653 29.882 30.9306 29.6667 30.2917 29.6667C29.6528 29.6667 29.1181 29.882 28.6875 30.3125C28.2569 30.7431 28.0417 31.2778 28.0417 31.9167C28.0417 32.5556 28.2569 33.0903 28.6875 33.5209C29.1181 33.9514 29.6528 34.1667 30.2917 34.1667Z" fill="#10A9FF"/>
</svg>
