<svg width="40" height="40" viewBox="0 0 40 40" fill="none" xmlns="http://www.w3.org/2000/svg">
<path d="M11.9167 29.4167H14.4167L25.0417 18.7917L22.5833 16.25L11.9167 26.9167V29.4167ZM25.7917 18.0417L27.4167 16.4167C27.6111 16.2222 27.7153 16.0069 27.7292 15.7708C27.7431 15.5347 27.6389 15.3056 27.4167 15.0833L26.2083 13.9167C25.9861 13.6944 25.7639 13.5903 25.5417 13.6042C25.3194 13.6181 25.1111 13.7222 24.9167 13.9167L23.3333 15.5L25.7917 18.0417ZM7.5 36.4583C6.80556 36.4583 6.21528 36.2153 5.72917 35.7292C5.24306 35.2431 5 34.6528 5 33.9583V8.95833C5 8.26389 5.24306 7.67361 5.72917 7.1875C6.21528 6.70139 6.80556 6.45833 7.5 6.45833H16.0417C16.1806 5.48611 16.625 4.6875 17.375 4.0625C18.125 3.4375 19 3.125 20 3.125C21 3.125 21.875 3.4375 22.625 4.0625C23.375 4.6875 23.8194 5.48611 23.9583 6.45833H32.5C33.1944 6.45833 33.7847 6.70139 34.2708 7.1875C34.7569 7.67361 35 8.26389 35 8.95833V33.9583C35 34.6528 34.7569 35.2431 34.2708 35.7292C33.7847 36.2153 33.1944 36.4583 32.5 36.4583H7.5ZM7.5 33.9583H32.5V8.95833H7.5V33.9583ZM20 8.25C20.3889 8.25 20.7292 8.10417 21.0208 7.8125C21.3125 7.52083 21.4583 7.18056 21.4583 6.79167C21.4583 6.40278 21.3125 6.0625 21.0208 5.77083C20.7292 5.47917 20.3889 5.33333 20 5.33333C19.6111 5.33333 19.2708 5.47917 18.9792 5.77083C18.6875 6.0625 18.5417 6.40278 18.5417 6.79167C18.5417 7.18056 18.6875 7.52083 18.9792 7.8125C19.2708 8.10417 19.6111 8.25 20 8.25Z" fill="#10A9FF"/>
</svg>
