<svg width="88" height="59" viewBox="0 0 88 59" fill="none" xmlns="http://www.w3.org/2000/svg">
<path d="M12.4618 17C9.02141 17 6.08435 18.2206 3.65061 20.6618C1.21687 23.103 0 26.0491 0 29.5C0 32.9509 1.21687 35.897 3.65061 38.3382C6.08435 40.7794 9.02141 42 12.4618 42C14.6789 42 16.6157 41.5527 18.2722 40.658C19.9286 39.7633 21.3685 38.5363 22.5917 36.977V42H25V31.9156H14.9465V34.3313H21.3303C20.3619 35.8395 19.1386 37.0601 17.6606 37.9931C16.1825 38.9261 14.4495 39.3926 12.4618 39.3926C9.70948 39.3926 7.37768 38.434 5.46636 36.5169C3.55505 34.5997 2.59939 32.2607 2.59939 29.5C2.59939 26.7393 3.55505 24.4003 5.46636 22.4831C7.37768 20.5659 9.70948 19.6074 12.4618 19.6074C14.5515 19.6074 16.4692 20.2081 18.2148 21.4095C19.9605 22.6109 21.1774 24.1958 21.8654 26.1641H24.5795C23.815 23.4289 22.3178 21.2178 20.0879 19.5307C17.8581 17.8436 15.316 17 12.4618 17Z" fill="black"/>
<path d="M37.633 32.6124H29.2041C29.2619 33.3821 29.6179 34.0076 30.2722 34.4887C30.9265 34.9698 31.6866 35.2103 32.5526 35.2103C33.9189 35.2103 34.9388 34.7869 35.6124 33.9402L36.9113 35.3546C35.7567 36.567 34.246 37.1732 32.3794 37.1732C30.8399 37.1732 29.5505 36.6632 28.5113 35.6433C27.4722 34.6234 26.9526 33.2763 26.9526 31.6021C26.9526 29.9663 27.4818 28.6385 28.5402 27.6186C29.5986 26.5986 30.8784 26.0887 32.3794 26.0887C33.8804 26.0887 35.1313 26.5409 36.132 27.4454C37.1326 28.3498 37.633 29.5526 37.633 31.0536V32.6124ZM35.3814 30.8227C35.3814 29.9567 35.1024 29.2735 34.5443 28.7732C34.0055 28.2729 33.3031 28.0227 32.4371 28.0227C31.5711 28.0227 30.811 28.2825 30.1567 28.8021C29.5216 29.3216 29.2041 29.9952 29.2041 30.8227H35.3814ZM42.9126 28.0804V33.5361C42.9126 34.0557 43.0473 34.4694 43.3167 34.7773C43.6054 35.066 43.9903 35.2103 44.4714 35.2103C44.914 35.2103 45.3758 34.9698 45.8569 34.4887L46.7806 36.1052C45.9724 36.8172 45.0968 37.1732 44.1538 37.1732C43.1724 37.1732 42.3449 36.8364 41.6714 36.1629C40.9978 35.4701 40.661 34.5753 40.661 33.4784V28.0804H39.3043V26.2619H40.661V22.8845H42.9126V26.2619H45.7415V28.0804H42.9126ZM57.135 31.8619L60.8298 37H57.7989L54.4216 32.2371H51.3041V37H48.9082V22.8845H54.1618C56.2979 22.8845 57.8278 23.2502 58.7515 23.9814C59.6945 24.6935 60.1659 25.8577 60.1659 27.4742C60.1659 29.8027 59.1556 31.2653 57.135 31.8619ZM54.2484 30.101C55.5762 30.101 56.4903 29.899 56.9907 29.4948C57.491 29.0907 57.7412 28.4076 57.7412 27.4454C57.7412 26.5216 57.491 25.8962 56.9907 25.5691C56.4903 25.2227 55.5955 25.0495 54.3061 25.0495H51.3041V30.101H54.2484ZM73.2892 32.6124H64.8604C64.9181 33.3821 65.2741 34.0076 65.9284 34.4887C66.5827 34.9698 67.3428 35.2103 68.2088 35.2103C69.5752 35.2103 70.5951 34.7869 71.2686 33.9402L72.5676 35.3546C71.413 36.567 69.9023 37.1732 68.0356 37.1732C66.4961 37.1732 65.2068 36.6632 64.1676 35.6433C63.1284 34.6234 62.6088 33.2763 62.6088 31.6021C62.6088 29.9663 63.138 28.6385 64.1965 27.6186C65.2549 26.5986 66.5346 26.0887 68.0356 26.0887C69.5367 26.0887 70.7875 26.5409 71.7882 27.4454C72.7889 28.3498 73.2892 29.5526 73.2892 31.0536V32.6124ZM71.0377 30.8227C71.0377 29.9567 70.7587 29.2735 70.2006 28.7732C69.6617 28.2729 68.9593 28.0227 68.0934 28.0227C67.2274 28.0227 66.4672 28.2825 65.813 28.8021C65.1779 29.3216 64.8604 29.9952 64.8604 30.8227H71.0377Z" fill="black"/>
<path d="M83.3317 25.0495H75.3647V22.8845H86.6513V24.732L78.4245 34.7485V34.8062H86.7668V37H75.1049V35.1526L83.3317 25.1072V25.0495Z" fill="#00A3FF"/>
</svg>
